<svg width="124" height="30" viewBox="0 0 124 30" fill="none" xmlns="http://www.w3.org/2000/svg">
<path d="M12.8958 12.6512H19.8107C16.4088 5.06929 8.82698 0.133301 0 0.133301V15.4304C0 18.7656 2.75704 21.5671 6.15887 21.4559H14.5634C13.4517 19.3659 12.9181 16.9201 12.9181 14.2965V12.6512H12.8958Z" fill="#639E30"/>
<path d="M29.4825 29.0378C21.4337 29.0378 15.0081 22.7455 15.0081 14.7634H23.2569C26.681 14.7634 29.5048 17.5427 29.5048 21.0112L29.4825 29.0378Z" fill="#F8AA36"/>
<path d="M104.834 4.44684C104.834 3.24619 104.39 2.22342 103.567 1.33405C102.878 0.644792 101.988 0.311279 101.032 0.200108L100.654 0.133405V11.7619V19.3882C100.654 20.5222 101.61 21.4782 102.744 21.4782C103.878 21.4782 104.834 20.5222 104.834 19.3882V12.1176V4.44684ZM96.5631 0.133405H93.2058C93.2058 0.133405 93.2058 0.133405 93.1391 0.133405H91.9384C88.959 0.133405 86.4021 1.15618 84.3121 3.24619C82.1554 5.33621 81.1326 7.82644 81.1326 10.8058V21.4782L81.5106 21.4115C82.4667 21.2781 83.2893 20.9001 84.0453 20.1442C84.9347 19.2548 85.3126 18.2987 85.3126 17.0981V10.7836V10.7169C85.3126 8.87144 85.9574 7.29282 87.2248 6.02547C88.4921 4.69142 90.093 4.06886 91.9162 4.06886H96.5631C97.6304 4.06886 98.5197 3.17949 98.5197 2.11225C98.542 0.95607 97.6526 0.133405 96.5631 0.133405ZM123.889 21.078C123.756 20.1887 123.378 19.4327 122.755 18.7212C121.932 17.8985 120.976 17.5205 119.842 17.5205H117.752C115.907 17.5205 114.328 16.8313 113.061 15.5417C111.794 14.2077 111.149 12.629 111.149 10.8503V6.53685C111.149 6.47015 111.149 6.33675 111.149 6.22557V2.09001C111.149 0.95607 110.193 0 109.059 0C107.992 0 107.102 0.889368 106.969 1.95661V2.15672V7.29282C106.969 7.29282 106.969 7.29282 106.969 7.35952V10.7836C106.969 13.763 108.036 16.2532 110.148 18.3432C112.305 20.4332 114.773 21.456 117.775 21.456H124L123.889 21.078ZM52.0947 3.24619C49.938 1.15618 47.4033 0.133405 44.4684 0.133405C41.489 0.133405 38.9988 1.15618 36.8421 3.24619C34.6854 5.33621 33.6626 7.87091 33.6626 10.8058C33.6626 13.7852 34.7521 16.2754 36.8421 18.3654C38.9988 20.4555 41.489 21.4782 44.4684 21.4782H55.3187V10.8058C55.3409 7.87091 54.2515 5.33621 52.0947 3.24619ZM51.0942 17.5205H44.4907C42.6452 17.5205 41.0666 16.8313 39.7992 15.5417C38.5319 14.2521 37.8871 12.6735 37.8871 10.8503V10.7836C37.8871 8.93815 38.5319 7.35952 39.7992 6.02547C41.0666 4.69142 42.6674 4.00216 44.4907 4.00216C44.4907 4.00216 44.4907 4.00216 44.5574 4.00216C46.4028 4.00216 47.9814 4.69142 49.2488 6.02547C50.5161 7.35952 51.1609 8.93815 51.1609 10.7836V17.5205H51.0942Z" fill="#004161"/>
<path d="M75.8631 3.24621C73.7063 1.1562 71.1716 0.133423 68.2367 0.133423C65.2573 0.133423 62.7671 1.1562 60.6104 3.24621C58.4537 5.33623 57.4309 7.87092 57.4309 10.8058V29.0379L57.8089 28.9712C58.765 28.8378 59.5876 28.4598 60.3436 27.7038C61.233 26.8145 61.6109 25.7917 61.6109 24.591V21.4783H68.2145C71.1939 21.3448 73.7508 20.3443 75.8408 18.2321C77.9975 16.142 79.0203 13.6518 79.0203 10.6724C79.0203 7.87092 77.9531 5.33623 75.8631 3.24621ZM74.8403 10.7836C74.8403 12.629 74.1955 14.2077 72.9281 15.5417C71.6608 16.8758 70.0599 17.5206 68.2367 17.5206H61.5665V10.8503C61.5665 10.8503 61.5665 10.8503 61.5665 10.7836C61.5665 8.93816 62.2113 7.35954 63.4786 6.09219C64.6793 4.82484 66.1467 4.18005 67.792 4.13558V4.20228L68.17 4.13558C70.0155 4.13558 71.5941 4.82484 72.8614 6.15889C74.151 7.35954 74.7736 8.9604 74.8403 10.7836Z" fill="#004161"/>
</svg>
